Coordinates
nRows=259
nColumns=2
inDegrees=yes
endheader
time	ankle_angle_r	
3.22681	  9.360312	
3.26008	  9.384155	
3.29335	  9.359925	
3.32661	  9.347544	
3.35988	  9.368896	
3.39315	  9.359345	
3.42641	  9.394542	
3.45968	  9.353638	
3.49294	  9.368896	
3.52621	  9.383926	
3.55948	  9.404155	
3.59274	  9.333023	
3.62601	  9.389607	
3.65927	  9.378606	
3.69254	  9.338379	
3.72581	  9.353638	
3.75907	  9.363057	
3.79234	  9.307861	
3.8256	  9.332346	
3.85887	  9.271214	
3.89214	  9.219115	
3.9254	  9.240503	
3.95867	  9.277344	
3.99194	  9.270827	
4.0252	  9.316507	
4.05847	  9.277344	
4.09173	  9.245179	
4.125	  9.277344	
4.15827	  9.330119	
4.19153	  9.300765	
4.2248	  9.307861	
4.25806	  9.338379	
4.29133	  9.262085	
4.3246	  9.315930	
4.35786	  9.307762	
4.39113	  9.262085	
4.4244	  9.307574	
4.45766	  9.247307	
4.49093	  9.284636	
4.52419	  9.322253	
4.55746	  9.292603	
4.59073	  9.314864	
4.62399	  9.309309	
4.65726	  9.323120	
4.69052	  9.268797	
4.72379	  9.285987	
4.75706	  9.268604	
4.79032	  9.174541	
4.82359	  9.222634	
4.85685	  9.274543	
4.89012	  9.204044	
4.92339	  9.252862	
4.95665	  9.273963	
4.98992	  9.277344	
5.02319	  9.286857	
5.05645	  9.286954	
5.08972	  9.298155	
5.12298	  9.368896	
5.15625	  9.364355	
5.18952	  9.318385	
5.22278	  9.373824	
5.25605	  9.343448	
5.28931	  9.348323	
5.32258	  9.368896	
5.35585	  9.373675	
5.38911	  9.327802	
5.42238	  9.358223	
5.45565	  9.368896	
5.48891	  9.368896	
5.52218	  9.384155	
5.55544	  9.342577	
5.58871	  9.338379	
5.62198	  9.353638	
5.65524	  9.368896	
5.68851	  9.292603	
5.72177	  9.368896	
5.75504	  9.372515	
5.78831	  9.399414	
5.82157	  9.377305	
5.85484	  9.380827	
5.8881	  9.372128	
5.92137	  9.350503	
5.95464	  9.277344	
5.9879	  9.267968	
6.02117	  9.277344	
6.05444	  9.292603	
6.0877	  9.246826	
6.12097	  9.218863	
6.15423	  9.203508	
6.1875	  9.213947	
6.22077	  9.216309	
6.25403	  9.264253	
6.2873	  9.233639	
6.32056	  9.229592	
6.35383	  9.246826	
6.3871	  9.140015	
6.42036	  9.294288	
6.45363	  9.262085	
6.4869	  9.185791	
6.52016	  9.245432	
6.55343	  9.248124	
6.58669	  9.277344	
6.61996	  9.263189	
6.65323	  9.293611	
6.68649	  9.248649	
6.71976	  9.276529	
6.75302	  9.262085	
6.78629	  9.277344	
6.81956	  9.292603	
6.85282	  9.308290	
6.88609	  9.231567	
6.91935	  9.368427	
6.95262	  9.307586	
6.98589	  9.277344	
7.01915	  9.323065	
7.05242	  9.338074	
7.08569	  9.231816	
7.11895	  9.247172	
7.15222	  9.277344	
7.18548	  9.232106	
7.21875	  9.276708	
7.25202	  9.337646	
7.28528	  9.322291	
7.31855	  9.277344	
7.35181	  9.368896	
7.38508	  9.279582	
7.41835	  9.353638	
7.45161	  9.399414	
7.48488	  9.398005	
7.51815	  9.382649	
7.55141	  9.399414	
7.58468	  9.350239	
7.61794	  9.374285	
7.65121	  9.372682	
7.68448	  9.307861	
7.71774	  9.351552	
7.75101	  9.401597	
7.78427	  9.342937	
7.81754	  9.379403	
7.85081	  9.412200	
7.88407	  9.323120	
7.91734	  9.394082	
7.9506	  9.402177	
7.98387	  9.283063	
8.01714	  9.341335	
8.0504	  9.396361	
8.08367	  9.314160	
8.11694	  9.368896	
8.1502	  9.335036	
8.18347	  9.280784	
8.21673	  9.311398	
8.25	  9.365263	
8.28327	  9.269545	
8.31653	  9.288823	
8.3498	  9.384155	
8.38306	  9.292603	
8.41633	  9.250942	
8.4496	  9.327333	
8.48286	  9.246826	
8.51613	  9.286157	
8.5494	  9.316868	
8.58266	  9.214849	
8.61593	  9.307861	
8.64919	  9.307861	
8.68246	  9.287124	
8.71573	  9.241541	
8.74899	  9.287519	
8.78226	  9.277344	
8.81552	  9.201050	
8.84879	  9.368896	
8.88206	  9.292603	
8.91532	  9.318995	
8.94859	  9.393750	
8.98185	  9.323120	
9.01512	  9.267941	
9.04839	  9.317166	
9.08165	  9.353638	
9.11492	  9.368896	
9.14819	  9.381384	
9.18145	  9.323120	
9.21472	  9.338379	
9.24798	  9.373239	
9.28125	  9.314491	
9.31452	  9.377428	
9.34778	  9.338379	
9.38105	  9.339797	
9.41431	  9.368896	
9.44758	  9.368896	
9.48085	  9.339217	
9.51411	  9.353638	
9.54738	  9.361041	
9.58065	  9.345621	
9.61391	  9.353573	
9.64718	  9.346202	
9.68044	  9.353315	
9.71371	  9.345751	
9.74698	  9.376881	
9.78024	  9.352736	
9.81351	  9.377074	
9.84677	  9.370186	
9.88004	  9.345267	
9.91331	  9.399414	
9.94657	  9.379330	
9.97984	  9.329719	
10.0131	  9.408172	
10.0464	  9.356087	
10.0796	  9.292603	
10.1129	  9.393203	
10.1462	  9.378040	
10.1794	  9.332361	
10.2127	  9.378234	
10.246	  9.363071	
10.2792	  9.328848	
10.3125	  9.368896	
10.3458	  9.235757	
10.379	  9.252264	
10.4123	  9.272002	
10.4456	  9.221553	
10.4788	  9.241678	
10.5121	  9.236724	
10.5454	  9.277344	
10.5786	  9.262085	
10.6119	  9.307861	
10.6452	  9.236232	
10.6784	  9.262085	
10.7117	  9.301544	
10.745	  9.218445	
10.7782	  9.231567	
10.8115	  9.207947	
10.8448	  9.220393	
10.878	  9.205037	
10.9113	  9.277344	
10.9446	  9.288809	
10.9778	  9.243129	
11.0111	  9.292603	
11.0444	  9.292603	
11.0776	  9.338379	
11.1109	  9.274033	
11.1442	  9.319906	
11.1774	  9.314096	
11.2107	  9.316923	
11.244	  9.335455	
11.2772	  9.302207	
11.3105	  9.356368	
11.3437	  9.335745	
11.377	  9.338379	
11.4103	  9.340819	
11.4435	  9.323120	
11.4768	  9.333884	
11.5101	  9.351487	
11.5433	  9.303754	
11.5766	  9.338379	
11.6099	  9.353638	
11.6431	  9.311389	
11.6764	  9.336712	
11.7097	  9.353638	
11.7429	  9.338379	
11.7762	  9.291225	
11.8095	  9.337098	
